PathFileType	4	(X/Y/Z)	./resultDataOpenSim/trcMotMarkerGrf/sub06/qtm-02-08.trc
DataRate	CameraRate	NumFrames	NumMarkers	Units	OrigDataRate	OrigDataStartFrame	OrigNumFrames
250.000000	250.000000	15	24	m	250.000000	1	489
Frame#	Time	L.Toe.Tip			R.Toe.Tip			L.Ankle.Lat			R.Ankle.Lat			L.Ankle.Med			R.Ankle.Med			L.Heel			R.Heel			L.Knee.Lat			R.Knee.Lat			L.Knee.Med			R.Knee.Med			L.Thigh.Upper			R.Thigh.Upper			L.ASIS			R.ASIS			V.Sacral			L.Acromium			R.Acromium			C7			L.Elbow			R.Elbow			L.Wrist.Lat			R.Wrist.Lat
		X1	Y1	Z1	X2	Y2	Z2	X3	Y3	Z3	X4	Y4	Z4	X5	Y5	Z5	X6	Y6	Z6	X7	Y7	Z7	X8	Y8	Z8	X9	Y9	Z9	X10	Y10	Z10	X11	Y11	Z11	X12	Y12	Z12	X13	Y13	Z13	X14	Y14	Z14	X15	Y15	Z15	X16	Y16	Z16	X17	Y17	Z17	X18	Y18	Z18	X19	Y19	Z19	X20	Y20	Z20	X21	Y21	Z21	X22	Y22	Z22	X23	Y23	Z23	X24	Y24	Z24

1	0	-1.5278613	0.031227633	-0.10200464	-0.99455243	0.087370308	0.13367065	-1.646235	0.074681127	-0.12080168	-1.1252939	0.077714211	0.13383877	-1.641159	0.085973123	-0.036144824	-1.1040193	0.10676824	0.052223718	NaN	NaN	NaN	-1.1612936	0.040878715	0.05916001	-1.4901524	0.41312998	-0.12857582	-1.2078079	0.4605996	0.13885284	-1.5101937	0.41607667	-0.010575425	-1.2133197	0.4381283	0.012548971	-1.3954054	0.79070976	-0.19053373	-1.3965499	0.7863798	0.1623169	-1.3149413	0.82839419	-0.14305796	-1.3083303	0.83511411	0.10320687	-1.4911737	0.91578658	-0.012254747	-1.3192558	1.315832	-0.1961336	-1.3439018	1.3003236	0.16555777	-1.4046447	1.35299	-0.01936465	-1.3401753	0.99662754	-0.27320874	-1.4794787	1.0113446	0.21099292	-1.1494974	0.83871817	-0.23984011	-1.3833927	0.79328478	0.25225895
2	0.004	-1.527837	0.031209241	-0.10206493	-0.97827389	0.091290861	0.13339058	-1.6455562	0.075265932	-0.12134012	-1.1096037	0.078656639	0.13570823	-1.6404244	0.086698363	-0.036303659	-1.0896996	0.10788329	0.053586613	NaN	NaN	NaN	-1.1454144	0.040855359	0.061471134	-1.4874397	0.41256982	-0.12881321	-1.2011434	0.45897329	0.13884412	-1.5073055	0.41552041	-0.010604268	-1.2066947	0.43615639	0.012193792	-1.3904515	0.78934175	-0.18993159	-1.3904408	0.78450741	0.16246707	-1.3092267	0.82699314	-0.14296916	-1.3017484	0.83347581	0.10340289	-1.4850273	0.91424793	-0.01131059	-1.3132786	1.3142441	-0.19557727	-1.3383846	1.2984779	0.1662131	-1.3986938	1.3515953	-0.018573878	-1.332615	0.99494471	-0.27276101	-1.475757	1.0106978	0.21180467	-1.1411418	0.83834999	-0.23850116	-1.3799591	0.79128033	0.25303272
3	0.008	-1.5278183	0.031185935	-0.10212229	-0.96248996	0.095359427	0.13316724	-1.644827	0.075903963	-0.12187625	-1.094239	0.079667779	0.13740938	-1.6397669	0.087409165	-0.036465711	-1.0757088	0.10900898	0.054844823	NaN	NaN	NaN	-1.1298514	0.040809697	0.06367465	-1.4846633	0.41200574	-0.12902681	-1.1941873	0.45744499	0.13899073	-1.5043586	0.41491651	-0.010632464	-1.2000311	0.43422402	0.011841454	-1.3854622	0.78805074	-0.18953071	-1.3843695	0.78258828	0.16257573	-1.3034783	0.82557482	-0.14284979	-1.2951369	0.83179692	0.10359856	-1.478859	0.9127171	-0.01035458	-1.3072798	1.3126682	-0.19500728	-1.3328759	1.2966785	0.16687588	-1.3927757	1.3501715	-0.017923401	-1.3250732	0.99327332	-0.2723609	-1.4718774	1.0099325	0.21253509	-1.1328434	0.83794252	-0.23718281	-1.3764922	0.78930861	0.25379818
4	0.012	-1.5277966	0.031157077	-0.10218592	-0.94759497	0.099526572	0.13309394	-1.6441336	0.076611982	-0.12230254	-1.0793927	0.080765983	0.13887075	-1.6392548	0.088089242	-0.036641745	-1.0622489	0.11014308	0.055933708	NaN	NaN	NaN	-1.1148158	0.04073124	0.065676123	-1.4817494	0.41142225	-0.12921272	-1.1869279	0.45604986	0.13931486	-1.5012328	0.41426349	-0.010663713	-1.1933026	0.4323602	0.011487903	-1.380422	0.78682313	-0.1893136	-1.378311	0.7806066	0.16264135	-1.2977087	0.82413051	-0.14271625	-1.2884904	0.83007868	0.10379676	-1.4726575	0.91119729	-0.0093888261	-1.301251	1.3111097	-0.19440797	-1.3273759	1.2949381	0.1675539	-1.3868832	1.3487154	-0.017431369	-1.3175376	0.99160719	-0.27198742	-1.4674699	1.008787	0.21298747	-1.1246066	0.83747389	-0.23587671	-1.3729775	0.78737173	0.25456145
5	0.016	-1.5277455	0.031129606	-0.10228481	-0.93372232	0.10365608	0.13318161	-1.6436482	0.07736232	-0.12248218	-1.0651701	0.081904172	0.14008911	-1.6388509	0.088753737	-0.036848591	-1.0493922	0.11126211	0.056830662	NaN	NaN	NaN	-1.1003997	0.040624983	0.067407109	-1.4786559	0.41081396	-0.12938466	-1.1795991	0.45476666	0.13971308	-1.4978813	0.41357898	-0.010703577	-1.1865133	0.43058728	0.011131044	-1.3753344	0.78558077	-0.18911085	-1.3721302	0.77860168	0.16273221	-1.2919799	0.82266192	-0.14262526	-1.2818252	0.82835123	0.1039946	-1.4664375	0.90969259	-0.0084303715	-1.2952012	1.3095656	-0.19377461	-1.3218769	1.2932357	0.16825301	-1.3809863	1.3472509	-0.016995889	-1.3100025	0.98994029	-0.27158574	-1.462332	1.0071409	0.21305873	-1.1164087	0.83695891	-0.23455636	-1.3694374	0.78545593	0.25532857
6	0.02	-1.5276174	0.03111863	-0.10247335	-0.92075662	0.1076637	0.13333041	-1.6434289	0.078124349	-0.12240468	-1.0516362	0.083000047	0.14106511	-1.6384045	0.089467469	-0.037099673	-1.0371048	0.11233533	0.057539286	NaN	NaN	NaN	-1.0865985	0.040505295	0.068827155	-1.4753959	0.41019369	-0.12955426	-1.1723786	0.45356991	0.14007695	-1.4943381	0.41286295	-0.010760088	-1.1796727	0.42891755	0.010789845	-1.3701895	0.78422156	-0.18875308	-1.3654776	0.7766572	0.16298716	-1.2863287	0.82117703	-0.142629	-1.275147	0.82663962	0.10417979	-1.4602153	0.90820974	-0.0075010743	-1.2891289	1.3080278	-0.19311908	-1.3163504	1.2915433	0.16897717	-1.3750486	1.3458025	-0.016489608	-1.3024742	0.98827743	-0.27112856	-1.4566781	1.005189	0.21289591	-1.1082296	0.8364319	-0.23320758	-1.3658969	0.78355479	0.25610147
7	0.024	-1.5273593	0.031143977	-0.10281213	-0.90855306	0.1114744	0.13343591	-1.6433397	0.078902153	-0.12221578	-1.0388353	0.083977848	0.14179955	-1.6378329	0.09028268	-0.037391458	-1.0253264	0.11333518	0.058074143	NaN	NaN	NaN	-1.0733921	0.0403887	0.069920133	-1.4720121	0.40956815	-0.1297126	-1.1652837	0.45245088	0.1403695	-1.4906367	0.41211436	-0.010836456	-1.1727869	0.42735305	0.010508942	-1.3649928	0.78269896	-0.18811143	-1.3579753	0.77485246	0.16353885	-1.2807177	0.8196996	-0.14273607	-1.2684588	0.82495671	0.10434241	-1.4540008	0.90675756	-0.0066217495	-1.2830254	1.3064922	-0.19245051	-1.310779	1.289857	0.16972927	-1.369058	1.3443796	-0.015875443	-1.2949633	0.98662839	-0.27061764	-1.4508909	1.003237	0.21274907	-1.1000783	0.83590251	-0.2318452	-1.3623458	0.78167783	0.25688459
8	0.028	-1.5269811	0.031214696	-0.10329158	-0.89703562	0.11497878	0.13344858	-1.6431542	0.079719342	-0.1221006	-1.0267739	0.084788681	0.14230868	-1.6371996	0.091179724	-0.037703939	-1.0140355	0.11423171	0.058449774	NaN	NaN	NaN	-1.060784	0.040279042	0.070694692	-1.4685296	0.40892864	-0.12983774	-1.1582526	0.45140443	0.14061589	-1.4868128	0.41134574	-0.010919076	-1.1658585	0.42589468	0.010328556	-1.3597946	0.78111195	-0.18712757	-1.3497405	0.77318885	0.16435117	-1.2750577	0.81825819	-0.14290409	-1.2617587	0.82330383	0.10448627	-1.4477929	0.90534199	-0.0057937136	-1.276884	1.304963	-0.19176022	-1.3051752	1.2881997	0.17051105	-1.3630296	1.3429786	-0.015211672	-1.2874755	0.98500261	-0.27005997	-1.445216	1.001466	0.21276515	-1.0919823	0.83535083	-0.23049676	-1.3587464	0.77984168	0.25768321
9	0.032	-1.5266334	0.031302569	-0.10374351	-0.88616927	0.11805288	0.13336699	-1.642695	0.080588569	-0.12216927	-1.0154067	0.085408321	0.14262033	-1.6365325	0.092114887	-0.038019157	-1.0032576	0.11499001	0.05867678	NaN	NaN	NaN	-1.0488005	0.040156603	0.071178623	-1.4649421	0.4082758	-0.12992283	-1.1512069	0.45042031	0.14086183	-1.4829209	0.41057137	-0.010984408	-1.1588863	0.42454926	0.010248636	-1.3546218	0.77962517	-0.18592574	-1.3414708	0.77157827	0.16518269	-1.2692823	0.81685443	-0.14305514	-1.2550385	0.82167861	0.10462336	-1.4415684	0.90396105	-0.0049701559	-1.2707025	1.3034515	-0.19103701	-1.2995529	1.2865978	0.17131958	-1.3569719	1.3415959	-0.01453979	-1.2800136	0.9834085	-0.26945898	-1.4397282	0.99990479	0.21295721	-1.0839658	0.83476781	-0.22917414	-1.3550618	0.77805697	0.2585032
10	0.036	-1.5265339	0.031347838	-0.10392023	-0.87591996	0.12058451	0.13321058	-1.6419465	0.081514851	-0.12241482	-1.0046526	0.085835967	0.14276466	-1.6357721	0.093091157	-0.038326917	-0.99302839	0.11557713	0.058763418	NaN	NaN	NaN	-1.0374892	0.03999081	0.071418179	-1.4612325	0.40763115	-0.12998278	-1.1440926	0.44948087	0.14113613	-1.4789944	0.40980396	-0.011018292	-1.1518621	0.4233276	0.010237337	-1.3494122	0.7782919	-0.18479651	-1.3337395	0.76994	0.16582771	-1.2633894	0.81546659	-0.14311781	-1.2482859	0.82008537	0.10476141	-1.4352804	0.90260438	-0.004071571	-1.2644844	1.3019707	-0.19028125	-1.2939087	1.2850597	0.17215061	-1.3508773	1.3402343	-0.013849916	-1.2725796	0.98185102	-0.26881071	-1.4344288	0.99851772	0.21328853	-1.076036	0.83416638	-0.22786646	-1.3512612	0.77632664	0.25935163
11	0.04	-1.5267347	0.031318723	-0.10375689	-0.86623932	0.12249002	0.13298873	-1.6410367	0.082512048	-0.12275399	-0.99442977	0.086094454	0.14276159	-1.634949	0.094133383	-0.038614544	-0.98335849	0.11596244	0.058717744	NaN	NaN	NaN	-1.0269197	0.039751227	0.071484908	-1.4573924	0.4070165	-0.13003081	-1.1368682	0.44857451	0.14144229	-1.4749988	0.40905511	-0.011023476	-1.144774	0.42224332	0.010273332	-1.3440797	0.77704714	-0.18394405	-1.326534	0.76828013	0.16629977	-1.2574183	0.81408291	-0.1430864	-1.2414757	0.81853176	0.10490114	-1.428888	0.90126043	-0.0030760435	-1.2582373	1.3005259	-0.1894985	-1.2882258	1.2835757	0.17300423	-1.3447433	1.3388982	-0.013141967	-1.2651762	0.98033227	-0.26810726	-1.4292445	0.99724504	0.21370687	-1.0681834	0.8335512	-0.22655783	-1.3473201	0.7746556	0.26022928
12	0.044	-1.527043	0.03124699	-0.10346171	-0.85707481	0.12372734	0.1326867	-1.6400726	0.083595683	-0.12312318	-0.98470049	0.086205935	0.14261601	-1.6341753	0.095240826	-0.038874181	-0.9742347	0.11611462	0.058550809	NaN	NaN	NaN	-1.0171569	0.03940691	0.071453592	-1.4534194	0.40643416	-0.13006491	-1.1294867	0.44770668	0.14176426	-1.470836	0.40832601	-0.011017061	-1.1376135	0.42131424	0.010358701	-1.3385995	0.77582874	-0.1833387	-1.3195875	0.76665948	0.16671669	-1.2514129	0.81271066	-0.14302373	-1.234587	0.81702125	0.1050375	-1.4224074	0.8999278	-0.0021154574	-1.2519643	1.2991155	-0.18869145	-1.282474	1.2821332	0.17388073	-1.3385752	1.3375888	-0.012431546	-1.2578055	0.97885558	-0.26734603	-1.42401	0.9960113	0.21414201	-1.0603948	0.83291273	-0.22524526	-1.3432333	0.77305162	0.26113032
13	0.048	-1.5272389	0.03118464	-0.10327285	-0.84838867	0.12429746	0.13227064	-1.6390306	0.084763908	-0.12351983	-0.97550966	0.086142364	0.14233462	-1.6334693	0.096403689	-0.03912177	-0.96564347	0.11600388	0.058275349	NaN	NaN	NaN	-1.0081892	0.038929505	0.071348033	-1.4493013	0.40586993	-0.13008204	-1.1219404	0.44689088	0.14206672	-1.4664403	0.40760784	-0.011020552	-1.1303782	0.42056014	0.010493105	-1.3329938	0.77462226	-0.18283903	-1.3127621	0.76512906	0.16713918	-1.2454065	0.81135893	-0.14300015	-1.2276218	0.81555422	0.10516212	-1.415913	0.89862387	-0.0014198546	-1.2456586	1.2977417	-0.18785787	-1.2766259	1.2807272	0.1747772	-1.3323715	1.3363076	-0.011706185	-1.2504705	0.9774277	-0.26653026	-1.4185766	0.99476955	0.21454302	-1.0526691	0.8322519	-0.22394063	-1.3390122	0.77151647	0.26205129
14	0.052	-1.5272678	0.031153088	-0.10324913	-0.84017361	0.12423255	0.13169777	-1.637822	0.086005477	-0.12395997	-0.96696591	0.085819836	0.14193517	-1.6327264	0.097632532	-0.039396275	-0.95758752	0.11560463	0.057896049	NaN	NaN	NaN	-0.99990344	0.038299444	0.071126302	-1.4450147	0.40531045	-0.13009269	-1.1142638	0.44614409	0.14230661	-1.4618408	0.40689629	-0.011043632	-1.123063	0.4199963	0.010663924	-1.3272832	0.77343229	-0.18233339	-1.3060365	0.76371301	0.16756481	-1.2394122	0.81002779	-0.14304	-1.2205815	0.81413709	0.10527005	-1.4094431	0.89738141	-0.0010602101	-1.2393156	1.2964128	-0.1869915	-1.2706782	1.2793593	0.17569178	-1.3261229	1.3350598	-0.010922852	-1.2431783	0.97605714	-0.26566429	-1.4129216	0.99353141	0.21491244	-1.0450146	0.83158206	-0.22265958	-1.3346623	0.77004678	0.26299101
15	0.056	-1.5271921	0.031145377	-0.1033255	-0.83245994	0.12358392	0.1309287	-1.6364733	0.087327036	-0.12442382	-0.95915227	0.085168738	0.1414312	-1.6318227	0.098957447	-0.039739341	-0.95008549	0.11489946	0.057405804	NaN	NaN	NaN	-0.99221395	0.037510082	0.070750725	-1.4405446	0.40475364	-0.130109	-1.1064806	0.44548477	0.14245057	-1.4570526	0.40619309	-0.011078791	-1.1156495	0.41962983	0.010863852	-1.3214722	0.77226446	-0.18177069	-1.2993363	0.76242844	0.16799198	-1.2333988	0.80871965	-0.14309544	-1.2134479	0.81278496	0.10536419	-1.4029344	0.89622592	-0.00081167883	-1.2329438	1.2951384	-0.18609125	-1.2646391	1.2780334	0.1766258	-1.319818	1.3338475	-0.010039101	-1.2359364	0.97475009	-0.26475052	-1.4071193	0.99233769	0.21528679	-1.037437	0.83091168	-0.22140967	-1.330176	0.7686452	0.26394344
